<?xml version="1.0" encoding="UTF-8" standalone="no"?>
<!-- Created with Inkscape (http://www.inkscape.org/) -->

<svg
   width="100"
   height="100"
   viewBox="0 0 26.458333 26.458334"
   version="1.1"
   id="svg12846"
   inkscape:version="1.1-rc (52f87abb86, 2021-05-02)"
   sodipodi:docname="Icono soleado.svg"
   inkscape:export-filename="C:\Users\dante\Desktop\Icono nublado.png"
   inkscape:export-xdpi="96"
   inkscape:export-ydpi="96"
   xmlns:inkscape="http://www.inkscape.org/namespaces/inkscape"
   xmlns:sodipodi="http://sodipodi.sourceforge.net/DTD/sodipodi-0.dtd"
   xmlns="http://www.w3.org/2000/svg"
   xmlns:svg="http://www.w3.org/2000/svg">
  <sodipodi:namedview
     id="namedview12848"
     pagecolor="#ffffff"
     bordercolor="#999999"
     borderopacity="1"
     objecttolerance="10.0"
     gridtolerance="10.0"
     guidetolerance="10.0"
     inkscape:pageshadow="0"
     inkscape:pageopacity="0"
     inkscape:pagecheckerboard="0"
     inkscape:document-units="mm"
     showgrid="false"
     units="px"
     inkscape:zoom="4"
     inkscape:cx="72.375"
     inkscape:cy="69.875"
     inkscape:window-width="1920"
     inkscape:window-height="1001"
     inkscape:window-x="-9"
     inkscape:window-y="-9"
     inkscape:window-maximized="1"
     inkscape:current-layer="layer2" />
  <defs
     id="defs12843" />
  <g
     inkscape:groupmode="layer"
     id="layer2"
     inkscape:label="Capa 2">
    <path
       style="fill:#ffffff;stroke:#ffffff;stroke-width:0.0078125"
       d=""
       id="path14440"
       transform="scale(0.26458333)" />
    <path
       style="fill:#ffffff;stroke:#ffffff;stroke-width:0.0078125"
       d=""
       id="path14479"
       transform="scale(0.26458333)" />
    <path
       style="fill:#fbcf62;stroke:none;stroke-width:0.0416409"
       d="m 12.868583,4.732431 c -0.231999,0.00348 -0.205155,0.302359 -0.205237,0.4644117 v 1.6052359 c 0,0.1637848 -0.03961,0.5125225 0.205237,0.5125225 0.244847,0 0.205237,-0.3487377 0.205237,-0.5125225 V 5.1968427 c -8.2e-5,-0.159117 0.02717,-0.4679009 -0.205237,-0.4644117 m 2.714418,0.5086443 c -0.168705,0.054287 -0.232369,0.3548249 -0.285361,0.5049271 -0.173589,0.4914641 -0.371109,0.9808751 -0.526144,1.4785068 -0.05077,0.1629865 -0.08936,0.5028613 0.185246,0.448748 0.174615,-0.034386 0.240004,-0.3448089 0.289383,-0.4909911 0.171168,-0.5067181 0.389047,-1.005545 0.535052,-1.5207497 0.04392,-0.1550744 0.06773,-0.5060254 -0.198176,-0.4204411 m -5.6040245,0.041588 c -0.148879,0.1185976 -0.0091,0.4123937 0.03994,0.5478248 0.182332,0.5041035 0.338886,1.0191052 0.52754,1.52075 0.05821,0.1547067 0.200762,0.4574078 0.4092,0.2880976 C 11.09809,7.5236742 10.970806,7.2335193 10.925236,7.0977798 10.749186,6.5735222 10.547151,6.0571351 10.364655,5.5349475 10.313674,5.3890568 10.167915,5.1321727 9.9789745,5.2826634 M 7.550248,6.7189613 C 7.3317531,6.8696929 7.606154,7.1469003 7.7083212,7.2705329 8.0401066,7.6719476 8.3467709,8.1004611 8.6893109,8.4916319 8.7917238,8.6085606 8.986165,8.8199449 9.1563471,8.7016644 9.3670018,8.5552499 9.0904661,8.2734464 8.9931429,8.1540253 8.6732202,7.7613762 8.3640519,7.355733 8.030953,6.9748316 7.9235322,6.8520057 7.740256,6.5879147 7.550248,6.7189613 m 10.409803,0 c -0.17831,0.092867 -0.314423,0.3267245 -0.441013,0.481068 -0.302889,0.3692255 -0.633277,0.7304881 -0.90735,1.1227994 -0.108611,0.1554543 -0.143912,0.5037484 0.149575,0.4164742 0.17478,-0.052001 0.302355,-0.280156 0.413389,-0.4148267 0.326859,-0.3963667 0.838596,-0.8398469 1.051795,-1.3111824 0.09092,-0.2010515 -0.05221,-0.4058839 -0.266396,-0.2943325 m -5.584036,1.3260769 c -0.80272,0.1088182 -1.574492,0.3249759 -2.257602,0.791804 -0.6232613,0.4259366 -1.1455063,0.95313 -1.556554,1.5981388 -1.4209347,2.22959 -0.8419214,5.409393 1.2281767,6.992156 1.1402523,0.87177 2.5439063,1.184073 3.9405413,0.979743 0.649327,-0.095 1.293318,-0.369246 1.847129,-0.724046 3.139873,-2.011698 3.116763,-6.855203 0,-8.8704083 C 15.100736,8.5040513 14.571308,8.2614072 14.017908,8.14545 13.485401,8.033886 12.918538,7.9715353 12.376015,8.0450382 M 5.7767741,8.9051914 c -0.2389108,0.096737 -0.05504,0.3504061 0.074525,0.4392855 0.4417266,0.3030517 0.9319593,0.5549893 1.3938031,0.8251761 0.1377958,0.08064 0.3541972,0.262329 0.5242561,0.195754 0.2129947,-0.08339 0.093916,-0.321301 -0.03411,-0.4111938 C 7.2936203,9.6441069 6.8035606,9.3921693 6.3420615,9.1146747 6.2005433,9.0295972 5.9489149,8.8354903 5.7767741,8.9051914 m 14.0287629,-0.00118 c -0.556601,0.1370788 -1.333708,0.702502 -1.801566,1.0436992 -0.152818,0.1113944 -0.243697,0.4299074 0.03736,0.4297384 0.183311,-8.7e-5 0.380174,-0.165891 0.532829,-0.255953 0.430628,-0.2540918 1.092515,-0.4984256 1.423398,-0.8832176 0.140751,-0.1636496 0.01916,-0.3862705 -0.19202,-0.3342693 M 4.866763,11.606889 c -0.194186,0.04161 -0.210243,0.301362 -0.037373,0.384876 0.4546903,0.219622 1.1399994,0.226212 1.6358134,0.318217 0.1711878,0.03177 0.4429948,0.116718 0.6096305,0.04266 C 7.3167131,12.245138 7.1219314,12.006296 6.957582,11.958223 6.4988623,11.823976 5.9917799,11.780635 5.521116,11.698852 5.3224618,11.664339 5.0680235,11.563801 4.866763,11.606889 m 15.882862,-0.0073 c -0.615504,0.04795 -1.282646,0.205047 -1.888135,0.33355 -0.165667,0.03515 -0.499791,0.285902 -0.199162,0.419516 0.152656,0.06784 0.371972,-0.0074 0.52754,-0.03422 0.411294,-0.07097 0.820618,-0.151948 1.23142,-0.225408 0.166406,-0.02974 0.41778,-0.02564 0.5534,-0.141092 0.203224,-0.172943 -0.04199,-0.366628 -0.225063,-0.352349 M 6.7935818,14.128715 c -0.6102086,0.09454 -1.2480721,0.186587 -1.8469394,0.339127 -0.1749604,0.04457 -0.3725344,0.306642 -0.1172524,0.41187 0.1586145,0.06543 0.4083134,-0.02712 0.568584,-0.0599 0.3953632,-0.08085 0.7936778,-0.14557 1.1903714,-0.219072 0.1603924,-0.0297 0.39162,-0.01741 0.5204059,-0.135305 0.262243,-0.240067 -0.1312816,-0.365233 -0.3151695,-0.336719 m 11.8394392,0.02488 c -0.167636,0.118703 -0.04113,0.318682 0.106107,0.369331 0.516868,0.177716 1.10877,0.181898 1.641114,0.300433 0.156306,0.03481 0.456445,0.149836 0.590916,0.01563 0.183974,-0.183631 -0.06822,-0.345252 -0.221533,-0.381835 -0.498232,-0.118787 -1.015183,-0.185405 -1.518708,-0.278847 -0.157008,-0.02915 -0.455011,-0.125884 -0.597896,-0.02471 m -11.018534,1.97334 c -0.5722692,0.155455 -1.3052181,0.702503 -1.7982823,1.041672 -0.1562797,0.107509 -0.2255223,0.416137 0.035539,0.432442 0.183978,0.01149 0.3778848,-0.162002 0.5313662,-0.247967 0.4129147,-0.231238 1.1576156,-0.523771 1.4529099,-0.899692 0.1408333,-0.17928 -0.019867,-0.381243 -0.2215324,-0.326455 m 10.3500386,0.0018 c -0.213775,0.08368 -0.09166,0.320287 0.0374,0.411828 0.439083,0.311585 0.934195,0.55896 1.393187,0.839031 0.14777,0.09015 0.382479,0.283873 0.565303,0.204541 0.257403,-0.111689 0.01465,-0.362317 -0.113993,-0.449802 -0.434321,-0.29549 -0.902712,-0.543372 -1.354356,-0.809799 -0.140956,-0.08314 -0.35432,-0.263597 -0.52754,-0.195797 m -9.0293834,1.646301 c -0.1795819,0.07308 -0.3147917,0.328482 -0.4349782,0.474896 -0.2987014,0.36384 -0.6205533,0.717583 -0.8986078,1.09832 -0.1057789,0.144767 -0.2247751,0.50434 0.095107,0.448748 0.1880377,-0.03265 0.3165979,-0.263597 0.4330491,-0.399324 0.3383119,-0.39438 0.8204946,-0.846593 1.0504006,-1.316674 0.092644,-0.189375 -0.029924,-0.393536 -0.2449704,-0.305966 m 7.6749851,0.01221 c -0.219604,0.124279 -0.0142,0.379427 0.08805,0.504931 0.333714,0.409504 0.676829,0.81149 1.005947,1.225007 0.104587,0.131376 0.294965,0.381751 0.487396,0.252149 0.205975,-0.138726 -0.06022,-0.429908 -0.15442,-0.547808 -0.317464,-0.397297 -0.640631,-0.791382 -0.964863,-1.182806 -0.104342,-0.125927 -0.274976,-0.357376 -0.46211,-0.251473 m -5.870546,1.056076 c -0.170346,0.09268 -0.212953,0.377316 -0.273457,0.547175 -0.169895,0.477009 -0.348286,0.953468 -0.5023777,1.436264 -0.04638,0.1454 -0.07306,0.515196 0.1887357,0.428725 0.186724,-0.06167 0.227402,-0.351378 0.289096,-0.513211 0.193948,-0.509029 0.450042,-1.070017 0.557997,-1.605236 0.03403,-0.168762 -0.05238,-0.406717 -0.259994,-0.293717 m 4.071237,-1.68e-4 c -0.177694,0.115619 -0.04327,0.399661 0.01063,0.547343 0.179007,0.490569 0.345864,0.985657 0.518879,1.478507 0.05328,0.15178 0.160782,0.508649 0.388554,0.370767 0.175066,-0.105988 0.05496,-0.395184 0.0056,-0.539739 -0.173302,-0.507466 -0.352267,-1.014552 -0.529838,-1.52075 -0.05398,-0.153891 -0.176134,-0.47777 -0.393808,-0.336128 m -2.052325,0.379723 c -0.148386,0.09838 -0.09515,0.394254 -0.09515,0.547807 0,0.535051 -0.0027,1.070186 4.1e-5,1.605236 8.3e-4,0.163017 0.03099,0.496694 0.28138,0.368656 0.185123,-0.09471 0.129052,-0.407139 0.129052,-0.57987 0,-0.570282 0.04655,-1.163881 -0.0024,-1.731755 -0.01385,-0.16065 -0.145156,-0.321258 -0.312917,-0.210074 z"
       id="path1506" />
    <path
       style="fill:#000000;stroke-width:0.211667"
       id="path1414"
       d="" />
    <path
       style="fill:#000000;stroke-width:0.211667"
       id="path1376"
       d="" />
  </g>
  <g
     inkscape:groupmode="layer"
     id="layer3"
     inkscape:label="Capa 3" />
  <g
     inkscape:label="Capa 1"
     inkscape:groupmode="layer"
     id="layer1" />
</svg>
