<?xml version="1.0" encoding="UTF-8" standalone="no"?>
<!-- Created with Inkscape (http://www.inkscape.org/) -->

<svg
   width="100"
   height="100"
   viewBox="0 0 26.458333 26.458334"
   version="1.1"
   id="svg12846"
   sodipodi:docname="Icono nublado.svg"
   inkscape:export-filename="C:\Users\dante\Desktop\Icono nublado.png"
   inkscape:export-xdpi="96"
   inkscape:export-ydpi="96"
   inkscape:version="1.1-rc (52f87abb86, 2021-05-02)"
   xmlns:inkscape="http://www.inkscape.org/namespaces/inkscape"
   xmlns:sodipodi="http://sodipodi.sourceforge.net/DTD/sodipodi-0.dtd"
   xmlns="http://www.w3.org/2000/svg"
   xmlns:svg="http://www.w3.org/2000/svg">
  <sodipodi:namedview
     id="namedview12848"
     pagecolor="#ffffff"
     bordercolor="#999999"
     borderopacity="1"
     objecttolerance="10.0"
     gridtolerance="10.0"
     guidetolerance="10.0"
     inkscape:pageshadow="0"
     inkscape:pageopacity="0"
     inkscape:pagecheckerboard="0"
     inkscape:document-units="mm"
     showgrid="false"
     units="px"
     inkscape:zoom="8"
     inkscape:cx="36.9375"
     inkscape:cy="56.5625"
     inkscape:window-width="1920"
     inkscape:window-height="1001"
     inkscape:window-x="-9"
     inkscape:window-y="-9"
     inkscape:window-maximized="1"
     inkscape:current-layer="layer2" />
  <defs
     id="defs12843" />
  <g
     inkscape:groupmode="layer"
     id="layer2"
     inkscape:label="Capa 2">
    <path
       style="fill:#ffffff;stroke:#ffffff;stroke-width:0.0233861"
       d="M 7.3783093,23.281163 C 6.2697467,23.102605 5.3489546,22.344561 5.0201466,21.339801 4.9030502,20.981982 4.881955,20.847383 4.8808675,20.45113 c -8.466e-4,-0.310134 0.00821,-0.414205 0.052921,-0.608038 0.138779,-0.601599 0.4144782,-1.085342 0.8483769,-1.488568 0.4071829,-0.378398 0.7433506,-0.565941 1.3202883,-0.736569 0.5811035,-0.17186 0.7877299,-0.333962 1.0240174,-0.803361 0.1531834,-0.304308 0.4782727,-0.663894 0.807013,-0.89265 0.2950604,-0.205318 0.7735308,-0.393001 1.0920319,-0.428356 0.505985,-0.05617 0.806264,-0.273667 1.048114,-0.759182 0.571169,-1.146628 1.593286,-1.920327 2.894671,-2.191142 0.278368,-0.05793 0.355137,-0.06421 0.776625,-0.0635 0.495783,8.21e-4 0.66437,0.02224 1.110838,0.141122 1.350684,0.359636 2.46448,1.465289 2.827425,2.806754 0.121879,0.45047 0.151541,0.714571 0.129507,1.153096 -0.03824,0.761112 -0.02774,0.834174 0.141859,0.986656 0.112634,0.101268 0.203589,0.126758 0.526052,0.147424 0.437444,0.02803 0.723439,0.100581 1.110839,0.28178 0.788908,0.368997 1.384688,1.138435 1.54617,1.996846 0.08083,0.429662 0.03185,1.014681 -0.11814,1.411149 -0.370271,0.978738 -1.137546,1.641201 -2.171989,1.875287 -0.141439,0.03201 -0.839172,0.03579 -6.220698,0.03374 -4.8245824,-0.0019 -6.0995658,-0.0085 -6.2484794,-0.03245 z"
       id="path14290" />
    <path
       style="fill:#ffffff;stroke:#ffffff;stroke-width:0.0078125"
       d=""
       id="path14440"
       transform="scale(0.26458333)" />
    <path
       style="fill:#ffffff;stroke:#ffffff;stroke-width:0.0078125"
       d=""
       id="path14479"
       transform="scale(0.26458333)" />
  </g>
  <g
     inkscape:groupmode="layer"
     id="layer3"
     inkscape:label="Capa 3">
    <path
       style="fill:#fbcf62;stroke:none;stroke-width:0.0434624"
       d="m 11.724848,5.0840223 c -0.250468,0.0035 -0.221486,0.305099 -0.221575,0.4686203 v 1.619783 c 0,0.165269 -0.04276,0.5171669 0.221575,0.5171669 0.264341,0 0.221577,-0.3518979 0.221577,-0.5171669 v -1.619783 c -8.9e-5,-0.1605587 0.02933,-0.472141 -0.221577,-0.4686203 m 2.93052,0.5132539 c -0.182136,0.054778 -0.250868,0.3580405 -0.30808,0.5095025 -0.187408,0.4959181 -0.400653,0.9897641 -0.568031,1.4919054 -0.05482,0.1644631 -0.09647,0.5074183 0.199994,0.4528147 0.188517,-0.0347 0.259112,-0.3479336 0.312422,-0.4954406 0.184795,-0.51131 0.42002,-1.0146571 0.577649,-1.5345307 0.04742,-0.15648 0.07312,-0.510611 -0.213954,-0.4242513 M 8.6051926,5.6392396 C 8.4444614,5.7589115 8.5953978,6.05537 8.6483102,6.1920285 8.8451584,6.7007003 9.0141765,7.220369 9.2178496,7.7265597 9.2806877,7.8826687 9.4345947,8.1881123 9.6596277,8.0172678 9.8134018,7.9005584 9.6759808,7.6077743 9.6267898,7.4708046 9.4367228,6.9417964 9.2186033,6.4207291 9.0215777,5.8938097 8.9665385,5.7465972 8.8091748,5.4873848 8.6051926,5.6392396 M 5.9831072,7.0885531 C 5.7472174,7.2406508 6.043464,7.52037 6.1537645,7.6451226 6.5119644,8.050175 6.8430432,8.4825721 7.2128537,8.8772874 7.3234194,8.9952761 7.5333407,9.2085756 7.7170711,9.089223 7.944497,8.941482 7.6459486,8.6571249 7.5408746,8.5366217 7.1954818,8.1404142 6.8616996,7.7310952 6.5020825,7.3467422 6.3861093,7.222803 6.1882415,6.956319 5.9831072,7.0885531 m 11.2385528,0 C 17.029155,7.1822621 16.882206,7.4182381 16.745538,7.5739806 16.418536,7.9465519 16.061844,8.3110879 15.765951,8.7069543 15.648693,8.8638175 15.610582,9.2152678 15.927436,9.127203 16.11613,9.07473 16.253861,8.8445084 16.373734,8.7086168 16.726615,8.3086585 17.279093,7.8611593 17.509266,7.3855529 17.607426,7.1826796 17.452896,6.9759905 17.22166,7.0885531 M 11.193067,8.4266466 C 10.326439,8.5364509 9.4932248,8.7545677 8.7557308,9.2256261 8.0828489,9.6554225 7.5190277,10.187393 7.0752547,10.838248 c -1.5340593,2.249793 -0.9089489,5.458411 1.3259551,7.055517 1.231031,0.87967 2.7464342,1.194803 4.2542582,0.988621 0.701021,-0.09586 1.396283,-0.372593 1.994183,-0.730607 3.389847,-2.02993 3.364897,-6.917324 0,-8.9507907 -0.514942,-0.3111691 -1.086519,-0.556012 -1.683977,-0.6730197 -0.5749,-0.1125748 -1.186893,-0.175491 -1.772607,-0.101322 M 4.0684423,9.2945947 c -0.2579317,0.097613 -0.059424,0.3535808 0.080459,0.4432658 0.4768936,0.3057975 1.0061546,0.5600195 1.5047672,0.8326545 0.1487656,0.08137 0.3823951,0.264706 0.5659929,0.197528 0.2299519,-0.08414 0.1013934,-0.324212 -0.036829,-0.41492 C 5.706052,10.040207 5.1769766,9.7859855 4.6787364,9.5059765 4.525951,9.4201275 4.2542903,9.2242621 4.0684453,9.2945946 m 15.1456297,-0.00117 c -0.600915,0.1383219 -1.439889,0.7088694 -1.944994,1.0531564 -0.164985,0.112406 -0.263099,0.433805 0.04033,0.433634 0.197912,-8.6e-5 0.410448,-0.167392 0.575256,-0.25827 0.46491,-0.256394 1.179493,-0.502943 1.536717,-0.8912215 0.151957,-0.165133 0.02069,-0.3897712 -0.207306,-0.3372989 M 3.085988,12.020796 c -0.2096463,0.04199 -0.2269827,0.304093 -0.040351,0.388364 0.4908884,0.221611 1.2307568,0.228261 1.766045,0.321101 0.1848162,0.03205 0.4782621,0.117775 0.6581649,0.04305 0.2611352,-0.108479 0.050847,-0.349485 -0.1265865,-0.397993 -0.4952402,-0.135466 -1.0426921,-0.1792 -1.5508276,-0.261724 -0.2144682,-0.03483 -0.4891645,-0.136276 -0.7064463,-0.0928 m 17.1473365,-0.0074 c -0.664505,0.04838 -1.384761,0.206906 -2.038454,0.336573 -0.178856,0.03547 -0.539582,0.288492 -0.215017,0.423318 0.164808,0.06846 0.401584,-0.0074 0.569539,-0.03453 0.444038,-0.07161 0.885949,-0.153326 1.329455,-0.227451 0.179654,-0.03001 0.45104,-0.02587 0.597458,-0.142371 0.219404,-0.174509 -0.04534,-0.369949 -0.242981,-0.355542 M 5.1662031,14.565474 c -0.6587899,0.0954 -1.3474343,0.188279 -1.9939794,0.342201 -0.1888891,0.04497 -0.4021922,0.30942 -0.1265865,0.415601 0.1712429,0.06603 0.4408212,-0.02737 0.6138497,-0.06044 0.4268396,-0.08159 0.856865,-0.146889 1.2851403,-0.221057 0.1731618,-0.02997 0.4227983,-0.01757 0.5618368,-0.136531 0.2831211,-0.242243 -0.1417327,-0.368544 -0.3402609,-0.339772 m 12.7820079,0.02511 c -0.180984,0.119779 -0.0444,0.321569 0.114554,0.372677 0.558018,0.179328 1.197043,0.183547 1.771766,0.303156 0.168753,0.03512 0.492785,0.151194 0.637962,0.01577 0.19862,-0.185295 -0.07365,-0.348381 -0.23917,-0.385295 C 19.695426,14.77703 19.13732,14.709809 18.593706,14.615521 18.4242,14.586101 18.102472,14.488495 17.948211,14.590581 M 6.0524627,16.581803 c -0.6178286,0.156863 -1.4091324,0.708863 -1.9414486,1.05111 -0.1687233,0.108479 -0.1140896,0.345821 0.03837,0.436362 0.1524596,0.09054 0.4079657,-0.163478 0.5736693,-0.250214 0.4457844,-0.233343 1.249774,-0.528521 1.5685806,-0.907847 0.1520427,-0.180905 -0.021447,-0.384697 -0.2391698,-0.329411 m 11.1740308,0.0018 c -0.230793,0.08444 -0.09896,0.323188 0.04037,0.415558 0.474039,0.314409 1.008569,0.564026 1.504102,0.846635 0.159534,0.09096 0.412929,0.286446 0.610308,0.206395 0.2779,-0.112703 0.01582,-0.365602 -0.123063,-0.453881 -0.468899,-0.298168 -0.974579,-0.548296 -1.46218,-0.817138 -0.152178,-0.08389 -0.382529,-0.265985 -0.569539,-0.197569 m -9.748237,1.661191 c -0.193879,0.07374 -0.3398525,0.331459 -0.4696079,0.4792 -0.3224815,0.367137 -0.6699573,0.724085 -0.9701479,1.108272 -0.1142007,0.146079 -0.2426699,0.50891 0.1026781,0.452814 0.203008,-0.03295 0.341803,-0.265985 0.4675248,-0.402942 0.365246,-0.397955 0.8858165,-0.854264 1.1340258,-1.328605 C 7.8427491,18.362441 7.7104239,18.15643 7.478256,18.244794 m 8.28601,0.01231 c -0.237086,0.125407 -0.01534,0.382866 0.09506,0.509508 0.360283,0.413216 0.730714,0.818844 1.086032,1.236108 0.112916,0.132566 0.31845,0.38521 0.526199,0.254432 0.222373,-0.139983 -0.06501,-0.433802 -0.166713,-0.552771 -0.342734,-0.400897 -0.691628,-0.798552 -1.041673,-1.193524 -0.11265,-0.127068 -0.296868,-0.360615 -0.498901,-0.253753 m -6.3379142,1.065647 c -0.183908,0.09352 -0.2299077,0.380734 -0.2952273,0.552133 -0.1834214,0.481331 -0.3760149,0.96211 -0.5423743,1.449279 -0.050076,0.14672 -0.078881,0.519867 0.2037617,0.432612 0.2015892,-0.06223 0.2455058,-0.354563 0.3121117,-0.517862 0.2093902,-0.513643 0.4858712,-1.079714 0.6024202,-1.619784 0.03674,-0.17029 -0.05654,-0.410402 -0.2806921,-0.296378 m 4.3953583,-1.7e-4 c -0.191841,0.116667 -0.04671,0.403283 0.01148,0.552303 0.193258,0.495014 0.3734,0.994589 0.560188,1.491906 0.05752,0.153154 0.173583,0.513257 0.419488,0.374127 0.189004,-0.106949 0.05934,-0.398765 0.006,-0.544631 -0.187099,-0.512065 -0.380313,-1.023745 -0.572021,-1.534531 -0.05828,-0.155286 -0.190157,-0.482099 -0.425159,-0.339174 m -2.215716,0.383179 c -0.1602,0.09928 -0.102723,0.397827 -0.102723,0.552772 0,0.539899 -0.0029,1.079883 4.5e-5,1.619782 9.24e-4,0.164494 0.03345,0.501196 0.30378,0.371997 0.199861,-0.09557 0.139327,-0.410828 0.139327,-0.585126 0,-0.575449 0.05025,-1.174428 -0.0026,-1.747447 -0.01493,-0.162106 -0.156699,-0.32417 -0.337815,-0.211978 z"
       id="path1964"
       sodipodi:nodetypes="ccsssccccscccccccccccccccccccccccccccccscccccccsccccccccccccccscccscccccscccccccscccccszssccccscccccccccccccsccccccscccccsccsccsccsccc" />
  </g>
  <g
     inkscape:label="Capa 1"
     inkscape:groupmode="layer"
     id="layer1">
    <path
       style="fill:#ffffff;stroke:#ffffff;stroke-width:0.0195119"
       d="m 7.4454042,24.293382 -0.166838,-0.01716 -0.247822,-0.04868 -0.247821,-0.04869 -0.236948,-0.07783 -0.236948,-0.07783 -0.236948,-0.112031 -0.236949,-0.112031 -0.207329,-0.134134 -0.20733,-0.134134 -0.10619,-0.08253 -0.10619,-0.08253 -0.145541,-0.134995 -0.145541,-0.134995 -0.135201,-0.15664 -0.135201,-0.156641 -0.109713,-0.154246 -0.109713,-0.154247 -0.109086,-0.202449 -0.109086,-0.202449 -0.07125,-0.169256 -0.07125,-0.169256 -0.06801,-0.242306 -0.06801,-0.242306 -0.03428,-0.215065 -0.03428,-0.215065 -8.9e-5,-0.375977 -8.8e-5,-0.375976 0.03509,-0.212089 0.03509,-0.212089 0.05903,-0.219316 0.05903,-0.219317 0.07088,-0.175941 0.07088,-0.175941 0.08832,-0.172511 0.08832,-0.172511 0.08076,-0.126342 0.08076,-0.126342 0.101217,-0.134966 0.101217,-0.134966 0.136737,-0.152587 0.136736,-0.152587 0.187584,-0.16231 0.187584,-0.162309 0.236948,-0.155729 0.236949,-0.155728 0.236948,-0.111749 0.236948,-0.111748 0.167838,-0.06002 0.167839,-0.06002 0.18313,-0.04647 0.183131,-0.04647 0.0383,-0.02002 0.0383,-0.02002 0.09908,-0.188355 0.09908,-0.188356 0.123761,-0.176695 0.123758,-0.176699 0.148092,-0.166497 0.148093,-0.166497 0.197436,-0.165829 0.197436,-0.165829 0.191862,-0.12275 0.191862,-0.122751 0.242564,-0.112735 0.242564,-0.112736 0.191425,-0.05937 0.191425,-0.05937 0.213361,-0.03937 0.213362,-0.03937 0.06911,-0.01407 0.06911,-0.01407 0.135414,-0.260291 0.135415,-0.260291 0.141024,-0.211947 0.141025,-0.211947 0.156282,-0.192951 0.156282,-0.192951 0.218886,-0.212351 0.218886,-0.212351 0.167838,-0.131542 0.167839,-0.131541 0.234182,-0.152239 0.234181,-0.152238 0.249588,-0.123918 0.249587,-0.123917 0.197644,-0.07688 0.197643,-0.07688 0.19727,-0.05927 0.197271,-0.05927 0.177711,-0.03764 0.177711,-0.03764 0.217202,-0.03514 0.217203,-0.03514 0.503515,9.71e-4 0.503515,9.71e-4 0.203114,0.03227 0.203114,0.03227 0.227106,0.04974 0.227105,0.04974 0.205661,0.06649 0.205661,0.06649 0.236828,0.09766 0.236827,0.09766 0.242923,0.135565 0.242923,0.135565 0.187584,0.130957 0.187584,0.130956 0.187584,0.153782 0.187584,0.153782 0.168406,0.17118 0.168406,0.17118 0.150055,0.183168 0.150054,0.183168 0.13842,0.20584 0.13842,0.205839 0.128753,0.24726 0.128752,0.24726 0.08263,0.202449 0.08263,0.202449 0.06777,0.229796 0.06777,0.229796 0.04758,0.252225 0.04758,0.252225 0.02338,0.28446 0.02338,0.28446 -0.0082,0.183712 -0.0082,0.183713 0.04043,0.0073 0.04043,0.0073 0.214448,0.04136 0.214449,0.04136 0.210083,0.06703 0.210084,0.06703 0.243947,0.114959 0.243946,0.114958 0.190459,0.122149 0.190458,0.122148 0.149155,0.117505 0.149154,0.117506 0.186522,0.189925 0.186522,0.189924 0.113863,0.147953 0.113862,0.147951 0.101906,0.160083 0.101907,0.160084 0.09312,0.192808 0.09312,0.192808 0.05929,0.164586 0.05929,0.164586 0.05126,0.203763 0.05126,0.203763 0.02977,0.24852 0.02977,0.24852 v 0.176423 0.176423 l -0.02094,0.199671 -0.02094,0.199672 -0.03982,0.202449 -0.03982,0.202448 -0.0859,0.250651 -0.08589,0.250651 -0.07229,0.15423 -0.07229,0.15423 -0.105983,0.17584 -0.105982,0.17584 -0.145503,0.190512 -0.145502,0.190513 -0.155369,0.160894 -0.15537,0.160893 -0.208455,0.163507 -0.208455,0.163507 -0.177711,0.107984 -0.177712,0.107985 -0.217202,0.100417 -0.217203,0.100417 -0.148092,0.04919 -0.148093,0.04919 -0.157965,0.03938 -0.157966,0.03938 -0.167838,0.03326 -0.167838,0.03326 -6.091543,0.0033 -6.0915428,0.0033 z m 12.4147248,-0.994203 0.183276,-0.0415 0.162274,-0.05206 0.162273,-0.05206 0.211728,-0.104946 0.211728,-0.104946 0.172011,-0.119124 0.172012,-0.119125 0.188886,-0.184433 0.188885,-0.184433 0.132784,-0.181903 0.132785,-0.181903 0.108194,-0.212089 0.108195,-0.212089 0.05873,-0.173528 0.05873,-0.173528 0.0321,-0.153662 0.0321,-0.153663 0.01538,-0.207853 0.01538,-0.207853 -0.01538,-0.207853 -0.01538,-0.207853 -0.03156,-0.149178 -0.03156,-0.149178 -0.04998,-0.149091 -0.04998,-0.149091 -0.105171,-0.212089 -0.105171,-0.212089 -0.125356,-0.173528 -0.125356,-0.173528 -0.197819,-0.192808 -0.197819,-0.192808 -0.177349,-0.118062 -0.177349,-0.118062 -0.184735,-0.09042 -0.184735,-0.09042 -0.200306,-0.06538 -0.200305,-0.06539 -0.17366,-0.02951 -0.173659,-0.02951 -0.221254,-0.01103 -0.221254,-0.01103 -0.08496,-0.02098 -0.08496,-0.02098 -0.09548,-0.08382 -0.09548,-0.08382 -0.02998,-0.07317 -0.02998,-0.07317 -0.01346,-0.08765 -0.01346,-0.08765 0.02296,-0.220127 0.02296,-0.220126 -5.45e-4,-0.29995 -5.45e-4,-0.299949 -0.03146,-0.210993 -0.03145,-0.210992 -0.06693,-0.250651 -0.06693,-0.250651 -0.08762,-0.212731 -0.08762,-0.212727 -0.05461,-0.105407 -0.05461,-0.105406 -0.108104,-0.173426 -0.108104,-0.173426 -0.140722,-0.18327 -0.140722,-0.183269 -0.21739,-0.21251 -0.217389,-0.21251 -0.217203,-0.15801 -0.217202,-0.15801 -0.213007,-0.119157 -0.213007,-0.119158 -0.221398,-0.09282 -0.221398,-0.09282 -0.236949,-0.06616 -0.236948,-0.06616 -0.187584,-0.03165 -0.187584,-0.03165 -0.274837,-0.01946 -0.274837,-0.01946 -0.268169,0.02076 -0.268169,0.02076 -0.246821,0.04847 -0.246821,0.04847 -0.236948,0.07691 -0.236949,0.07691 -0.236948,0.111671 -0.236948,0.111671 -0.163943,0.09941 -0.163942,0.09941 -0.151391,0.111181 -0.15139,0.111182 -0.186491,0.173528 -0.18649,0.173527 -0.148579,0.173528 -0.148578,0.173527 -0.135145,0.202417 -0.135145,0.202417 -0.136518,0.269963 -0.136518,0.269964 -0.09969,0.101591 -0.09969,0.101591 -0.119735,0.07557 -0.119736,0.07557 -0.122235,0.03885 -0.122234,0.03885 -0.154936,0.02025 -0.1549358,0.02025 -0.151122,0.03808 -0.151122,0.03808 -0.104628,0.03925 -0.104627,0.03926 -0.171812,0.0847 -0.171812,0.0847 -0.147645,0.101772 -0.147646,0.101771 -0.170975,0.160941 -0.170974,0.16094 -0.122735,0.168074 -0.122734,0.168073 -0.07963,0.154247 -0.07963,0.154247 -0.0744,0.106044 -0.0744,0.106045 -0.07597,0.07041 -0.07597,0.07041 -0.127527,0.07969 -0.127527,0.07968 -0.13904,0.03894 -0.13904,0.03894 -0.217202,0.06571 -0.217203,0.06571 -0.187584,0.08898 -0.187584,0.08898 -0.197457,0.127304 -0.197457,0.127305 -0.238221,0.23273 -0.238222,0.232729 -0.12395,0.182258 -0.12395,0.182258 -0.08475,0.164797 -0.08475,0.164797 -0.05963,0.16498 -0.05963,0.16498 -0.04265,0.191716 -0.04265,0.191715 -0.01502,0.21691 -0.01502,0.216909 0.01499,0.21691 0.01499,0.216909 0.03224,0.154247 0.03224,0.154247 0.06657,0.195726 0.06657,0.195725 0.07813,0.15133 0.07813,0.151329 0.12121,0.179898 0.12121,0.179899 0.181968,0.183739 0.181969,0.183739 0.12125,0.09426 0.121251,0.09426 0.168813,0.103489 0.168813,0.10349 0.20798,0.08894 0.207979,0.08894 0.222674,0.05724 0.222674,0.05724 0.157966,0.02024 0.157965,0.02024 0.06911,0.0068 0.06911,0.0068 5.9730698,-0.0024 5.973068,-0.0024 z"
       id="path13034" />
    <rect
       style="fill:#ffffff;stroke:#ffffff;stroke-width:0.264583"
       id="rect14674"
       width="16.801041"
       height="4.4317708"
       x="5.2202497"
       y="18.090885" />
    <rect
       style="fill:#ffffff;stroke:#ffffff;stroke-width:0.264583"
       id="rect14676"
       width="0.9921875"
       height="3.0427084"
       x="4.7241559"
       y="18.686197" />
    <rect
       style="fill:#ffffff;stroke:#ffffff;stroke-width:0.264583"
       id="rect14678"
       width="1.4882812"
       height="2.9104166"
       x="20.962959"
       y="18.851562" />
    <rect
       style="fill:#ffffff;stroke:#ffffff;stroke-width:0.264583"
       id="rect14682"
       width="15.345833"
       height="1.0252604"
       x="6.0470729"
       y="22.258072" />
    <rect
       style="fill:#ffffff;stroke:#ffffff;stroke-width:0.264583"
       id="rect14684"
       width="3.5546846"
       height="1.2628485"
       x="5.6360464"
       y="17.516176" />
    <rect
       style="fill:#ffffff;stroke:#ffffff;stroke-width:0.264583"
       id="rect14686"
       width="1.4499372"
       height="0.72496819"
       x="7.7407942"
       y="16.791208" />
    <rect
       style="fill:#ffffff;stroke:#ffffff;stroke-width:0.264583"
       id="rect14688"
       width="2.0112033"
       height="0.98221546"
       x="8.0214262"
       y="16.019466" />
    <rect
       style="fill:#ffffff;stroke:#ffffff;stroke-width:0.264583"
       id="rect14690"
       width="3.2974377"
       height="1.099146"
       x="8.4189901"
       y="15.434814" />
    <rect
       style="fill:#ffffff;stroke:#ffffff;stroke-width:0.264583"
       id="rect14692"
       width="1.4733232"
       height="1.3096207"
       x="10.851143"
       y="14.171967" />
    <rect
       style="fill:#ffffff;stroke:#ffffff;stroke-width:0.264583"
       id="rect14694"
       width="2.9466465"
       height="1.5668676"
       x="11.389023"
       y="13.259909" />
    <rect
       style="fill:#ffffff;stroke:#ffffff;stroke-width:0.264583"
       id="rect14696"
       width="2.1047475"
       height="1.0056016"
       x="12.441396"
       y="12.768801" />
    <rect
       style="fill:#ffffff;stroke:#ffffff;stroke-width:0.264583"
       id="rect14698"
       width="3.0635769"
       height="1.9644309"
       x="13.400226"
       y="12.067219" />
    <rect
       style="fill:#ffffff;stroke:#ffffff;stroke-width:0.264583"
       id="rect14700"
       width="1.3701543"
       height="2.2023122"
       x="16.122637"
       y="12.671237" />
    <rect
       style="fill:#ffffff;stroke:#ffffff;stroke-width:0.264583"
       id="rect14702"
       width="1.4265511"
       height="3.9522481"
       x="16.791208"
       y="13.283296" />
    <rect
       style="fill:#ffffff;stroke:#ffffff;stroke-width:0.264583"
       id="rect14704"
       width="1.6694046"
       height="3.0651455"
       x="17.212158"
       y="14.405828" />
    <rect
       style="fill:#ffffff;stroke:#ffffff;stroke-width:0.264583"
       id="rect14710"
       width="4.1717501"
       height="1.6160183"
       x="16.791208"
       y="17.235544" />
    <rect
       style="fill:#ffffff;stroke:#ffffff;stroke-width:0.264583"
       id="rect14871"
       width="4.9551864"
       height="3.0238788"
       x="11.742477"
       y="13.720557" />
    <rect
       style="fill:#ffffff;stroke:#ffffff;stroke-width:0.264583"
       id="rect15293"
       width="8.6729717"
       height="5.0981936"
       x="9.0536785"
       y="15.808965" />
  </g>
</svg>
