<?xml version="1.0" encoding="UTF-8" standalone="no"?>
<!-- Created with Inkscape (http://www.inkscape.org/) -->

<svg
   width="100"
   height="100"
   viewBox="0 0 26.458333 26.458334"
   version="1.1"
   id="svg12846"
   sodipodi:docname="Icono noche.svg"
   inkscape:export-filename="C:\Users\dante\Desktop\Icono nublado.png"
   inkscape:export-xdpi="96"
   inkscape:export-ydpi="96"
   inkscape:version="1.1-rc (52f87abb86, 2021-05-02)"
   xmlns:inkscape="http://www.inkscape.org/namespaces/inkscape"
   xmlns:sodipodi="http://sodipodi.sourceforge.net/DTD/sodipodi-0.dtd"
   xmlns="http://www.w3.org/2000/svg"
   xmlns:svg="http://www.w3.org/2000/svg">
  <sodipodi:namedview
     id="namedview12848"
     pagecolor="#ffffff"
     bordercolor="#999999"
     borderopacity="1"
     objecttolerance="10.0"
     gridtolerance="10.0"
     guidetolerance="10.0"
     inkscape:pageshadow="0"
     inkscape:pageopacity="0"
     inkscape:pagecheckerboard="0"
     inkscape:document-units="mm"
     showgrid="false"
     units="px"
     inkscape:zoom="4"
     inkscape:cx="61.125"
     inkscape:cy="46.125"
     inkscape:window-width="1920"
     inkscape:window-height="1001"
     inkscape:window-x="-9"
     inkscape:window-y="-9"
     inkscape:window-maximized="1"
     inkscape:current-layer="layer2" />
  <defs
     id="defs12843" />
  <g
     inkscape:groupmode="layer"
     id="layer2"
     inkscape:label="Capa 2">
    <path
       style="fill:#ffffff;stroke:#ffffff;stroke-width:0.0078125"
       d=""
       id="path14440"
       transform="scale(0.26458333)" />
    <path
       style="fill:#ffffff;stroke:#ffffff;stroke-width:0.0078125"
       d=""
       id="path14479"
       transform="scale(0.26458333)" />
  </g>
  <g
     inkscape:groupmode="layer"
     id="layer3"
     inkscape:label="Capa 3"
     style="opacity:1">
    <path
       style="fill:#ffff4d;fill-opacity:1;stroke:none;stroke-width:0.0234628"
       d="m 13.16162,5.9554294 c 0.119134,0.140533 0.314913,0.233853 0.467193,0.344771 0.260423,0.189693 0.508035,0.395613 0.735485,0.61792 0.843775,0.824749 1.413553,1.854906 1.669058,2.955239 0.850341,3.6620346 -2.424804,7.3202846 -6.5355121,7.3202846 -1.024013,0 -2.082476,-0.216874 -2.999871,-0.634503 -0.423374,-0.192739 -0.801874,-0.521174 -1.229454,-0.685749 0.211564,0.668644 0.80126,1.323991 1.296214,1.83583 2.122949,2.195496 5.6936061,2.929403 8.6623721,1.848166 3.808975,-1.387261 5.840871,-5.426289 4.427341,-8.945219 -0.465914,-1.1598636 -1.223455,-2.1594736 -2.238911,-2.9787506 -1.230808,-0.993041 -2.675983,-1.4111 -4.253915,-1.677989 z"
       id="path3291" />
  </g>
  <g
     inkscape:label="Capa 1"
     inkscape:groupmode="layer"
     id="layer1" />
</svg>
