<?xml version="1.0" encoding="UTF-8" standalone="no"?>
<!-- Created with Inkscape (http://www.inkscape.org/) -->

<svg
   width="100"
   height="100"
   viewBox="0 0 26.458333 26.458334"
   version="1.1"
   id="svg12846"
   sodipodi:docname="Icono nublado noche.svg"
   inkscape:export-filename="C:\Users\dante\Desktop\Icono nublado.png"
   inkscape:export-xdpi="96"
   inkscape:export-ydpi="96"
   inkscape:version="1.1-rc (52f87abb86, 2021-05-02)"
   xmlns:inkscape="http://www.inkscape.org/namespaces/inkscape"
   xmlns:sodipodi="http://sodipodi.sourceforge.net/DTD/sodipodi-0.dtd"
   xmlns="http://www.w3.org/2000/svg"
   xmlns:svg="http://www.w3.org/2000/svg">
  <sodipodi:namedview
     id="namedview12848"
     pagecolor="#ffffff"
     bordercolor="#999999"
     borderopacity="1"
     objecttolerance="10.0"
     gridtolerance="10.0"
     guidetolerance="10.0"
     inkscape:pageshadow="0"
     inkscape:pageopacity="0"
     inkscape:pagecheckerboard="0"
     inkscape:document-units="mm"
     showgrid="false"
     units="px"
     inkscape:zoom="4"
     inkscape:cx="61.125"
     inkscape:cy="46.125"
     inkscape:window-width="1920"
     inkscape:window-height="1001"
     inkscape:window-x="-9"
     inkscape:window-y="-9"
     inkscape:window-maximized="1"
     inkscape:current-layer="layer2" />
  <defs
     id="defs12843" />
  <g
     inkscape:groupmode="layer"
     id="layer2"
     inkscape:label="Capa 2">
    <path
       style="fill:#ffffff;stroke:#ffffff;stroke-width:0.0233861"
       d="M 6.7645967,21.572554 C 5.6560341,21.393996 4.735242,20.635952 4.406434,19.631192 4.2893376,19.273373 4.2682424,19.138774 4.2671549,18.742521 c -8.466e-4,-0.310134 0.00821,-0.414205 0.052921,-0.608038 0.1387791,-0.601599 0.4144782,-1.085342 0.8483769,-1.488568 0.407183,-0.378398 0.7433506,-0.565941 1.3202883,-0.736569 0.5811035,-0.17186 0.7877299,-0.333962 1.0240175,-0.803361 0.1531833,-0.304308 0.4782726,-0.663894 0.8070129,-0.89265 0.2950605,-0.205318 0.7735308,-0.393001 1.0920319,-0.428356 0.5059848,-0.05617 0.8062636,-0.273667 1.0481136,-0.759182 0.571169,-1.146629 1.593286,-1.920328 2.894671,-2.191143 0.278368,-0.05793 0.355137,-0.06421 0.776625,-0.0635 0.495783,8.21e-4 0.66437,0.02224 1.110838,0.141122 1.350684,0.359636 2.46448,1.465289 2.827425,2.806755 0.121879,0.45047 0.151541,0.714571 0.129507,1.153096 -0.03824,0.761112 -0.02774,0.834174 0.141859,0.986656 0.112634,0.101268 0.203589,0.126758 0.526052,0.147424 0.437444,0.02803 0.723439,0.100581 1.110839,0.28178 0.788908,0.368997 1.384688,1.138435 1.54617,1.996846 0.08083,0.429662 0.03185,1.014681 -0.11814,1.411149 -0.370271,0.978738 -1.137546,1.641201 -2.171989,1.875287 -0.141439,0.03201 -0.839172,0.03579 -6.220698,0.03374 -4.824582,-0.0019 -6.0995654,-0.0085 -6.248479,-0.03245 z"
       id="path14290" />
    <path
       style="fill:#ffffff;stroke:#ffffff;stroke-width:0.0078125"
       d=""
       id="path14440"
       transform="scale(0.26458333)" />
    <path
       style="fill:#ffffff;stroke:#ffffff;stroke-width:0.0078125"
       d=""
       id="path14479"
       transform="scale(0.26458333)" />
  </g>
  <g
     inkscape:groupmode="layer"
     id="layer3"
     inkscape:label="Capa 3"
     style="opacity:1">
    <path
       style="fill:#ffff4d;stroke:none;stroke-width:0.0234628;fill-opacity:1"
       d="m 10.846516,3.4418878 c 0.119134,0.140533 0.314913,0.233853 0.467193,0.344771 0.260423,0.189693 0.508035,0.395613 0.735485,0.61792 0.843775,0.824749 1.413553,1.854906 1.669058,2.955239 0.850341,3.6620342 -2.424804,7.3202842 -6.5355122,7.3202842 -1.024013,0 -2.082476,-0.216874 -2.999871,-0.634503 -0.423374,-0.192739 -0.801874,-0.521174 -1.229454,-0.685749 0.211564,0.668644 0.80126,1.323991 1.296214,1.83583 2.122949,2.195496 5.6936064,2.929403 8.6623722,1.848166 3.808975,-1.387261 5.840871,-5.426289 4.427341,-8.9452182 -0.465914,-1.159864 -1.223455,-2.159474 -2.238911,-2.978751 -1.230808,-0.993041 -2.675983,-1.4111 -4.253915,-1.677989 z"
       id="path3291" />
  </g>
  <g
     inkscape:label="Capa 1"
     inkscape:groupmode="layer"
     id="layer1">
    <path
       style="fill:#ffffff;stroke:#ffffff;stroke-width:0.0195119"
       d="m 6.8316916,22.584773 -0.166838,-0.01716 -0.247822,-0.04868 -0.247821,-0.04869 -0.236948,-0.07783 -0.236948,-0.07783 -0.236948,-0.112031 -0.236949,-0.112031 -0.207329,-0.134134 -0.20733,-0.134134 -0.10619,-0.08253 -0.10619,-0.08253 -0.145541,-0.134995 -0.1455409,-0.134995 -0.1352011,-0.15664 -0.135201,-0.156641 -0.109713,-0.154246 -0.109713,-0.154247 -0.109086,-0.202449 -0.109086,-0.202449 -0.07125,-0.169256 -0.07125,-0.169256 -0.06801,-0.242306 -0.06801,-0.242306 -0.03428,-0.215065 -0.03428,-0.215065 -8.9e-5,-0.375977 -8.8e-5,-0.375976 0.03509,-0.212089 0.03509,-0.212089 0.05903,-0.219316 0.05903,-0.219317 0.07088,-0.175941 0.07088,-0.175941 0.08832,-0.172511 0.08832,-0.172511 0.08076,-0.126342 0.08076,-0.126342 0.101217,-0.134966 0.101217,-0.134966 0.136737,-0.152587 0.136736,-0.152587 0.187584,-0.16231 0.1875841,-0.162309 0.236948,-0.155729 0.236949,-0.155728 0.236948,-0.111749 0.2369479,-0.111748 0.167838,-0.06002 0.167839,-0.06002 0.18313,-0.04647 0.1831311,-0.04647 0.0383,-0.02002 0.0383,-0.02002 0.09908,-0.188355 0.09908,-0.188356 0.123761,-0.176695 0.123758,-0.176699 0.148092,-0.166497 0.148093,-0.166497 0.197436,-0.165829 0.197436,-0.165829 0.191862,-0.12275 0.1918621,-0.122751 0.2425639,-0.112735 0.242564,-0.112736 0.1914251,-0.05937 0.191425,-0.05937 0.213361,-0.03937 0.213362,-0.03937 0.06911,-0.01407 0.06911,-0.01407 0.1354135,-0.260291 0.135415,-0.260291 0.1410239,-0.211947 0.141025,-0.211947 0.1562818,-0.192951 0.156282,-0.192951 0.218886,-0.212351 0.218886,-0.212351 0.167838,-0.131542 0.167839,-0.131541 0.234182,-0.152239 0.234181,-0.152238 0.249588,-0.123918 0.249587,-0.123917 0.197644,-0.07688 0.197643,-0.07688 0.19727,-0.059271 0.197271,-0.05927 0.177711,-0.03764 0.177711,-0.03764 0.217202,-0.03514 0.217203,-0.03514 0.503515,9.71e-4 0.503515,9.71e-4 0.203114,0.03227 0.203114,0.03227 0.227106,0.04974 0.227105,0.04974 0.205661,0.066491 0.205661,0.06649 0.236828,0.09766 0.236827,0.09766 0.242923,0.135565 0.242923,0.135565 0.187584,0.130957 0.187584,0.130956 0.187584,0.153782 0.187584,0.153782 0.168406,0.17118 0.168406,0.17118 0.150055,0.183168 0.150054,0.183168 0.13842,0.20584 0.13842,0.205839 0.128753,0.24726 0.128752,0.24726 0.08263,0.202449 0.08263,0.202449 0.06777,0.229796 0.06777,0.229796 0.04758,0.252225 0.04758,0.252225 0.02338,0.28446 0.02338,0.28446 -0.0082,0.183712 -0.0082,0.183713 0.04043,0.0073 0.04043,0.0073 0.214448,0.04136 0.214449,0.04136 0.210083,0.06703 0.210084,0.06703 0.243947,0.114959 0.243946,0.114958 0.190459,0.122149 0.190458,0.122148 0.149155,0.117505 0.149154,0.117506 0.186522,0.189925 0.186522,0.189924 0.113863,0.147953 0.113862,0.147951 0.101906,0.160083 0.101907,0.160084 0.09312,0.192808 0.09312,0.192808 0.05929,0.164586 0.05929,0.164586 0.05126,0.203763 0.05126,0.203763 0.02977,0.24852 0.02977,0.24852 v 0.176423 0.176423 l -0.02094,0.199671 -0.02094,0.199672 -0.03982,0.202449 -0.03982,0.202448 -0.0859,0.250651 -0.08589,0.250651 -0.07229,0.15423 -0.07229,0.15423 -0.105983,0.17584 -0.105982,0.17584 -0.145503,0.190512 -0.145502,0.190513 -0.155369,0.160894 -0.15537,0.160893 -0.208455,0.163507 -0.208455,0.163507 -0.177711,0.107984 -0.177712,0.107985 -0.217202,0.100417 -0.217203,0.100417 -0.148092,0.04919 -0.148093,0.04919 -0.157965,0.03938 -0.157966,0.03938 -0.167838,0.03326 -0.167838,0.03326 -6.091543,0.0033 -6.091542,0.0033 z m 12.4147244,-0.994203 0.183276,-0.0415 0.162274,-0.05206 0.162273,-0.05206 0.211728,-0.104946 0.211728,-0.104946 0.172011,-0.119124 0.172012,-0.119125 0.188886,-0.184433 0.188885,-0.184433 0.132784,-0.181903 0.132785,-0.181903 0.108194,-0.212089 0.108195,-0.212089 0.05873,-0.173528 0.05873,-0.173528 0.0321,-0.153662 0.0321,-0.153663 0.01538,-0.207853 0.01538,-0.207853 -0.01538,-0.207853 -0.01538,-0.207853 -0.03156,-0.149178 -0.03156,-0.149178 -0.04998,-0.149091 -0.04998,-0.149091 -0.105171,-0.212089 -0.105171,-0.212089 -0.125356,-0.173528 -0.125356,-0.173528 -0.197819,-0.192808 -0.197819,-0.192808 -0.177349,-0.118062 -0.177349,-0.118062 -0.184735,-0.09042 -0.184735,-0.09042 -0.200306,-0.06538 -0.200305,-0.06539 -0.17366,-0.02951 -0.173659,-0.02951 -0.221254,-0.01103 -0.221254,-0.01103 -0.08496,-0.02098 -0.08496,-0.02098 -0.09548,-0.08382 -0.09548,-0.08382 -0.02998,-0.07317 -0.02998,-0.07317 -0.01346,-0.08765 -0.01346,-0.08765 0.02296,-0.220127 0.02296,-0.220126 -5.45e-4,-0.29995 -5.45e-4,-0.299949 -0.03146,-0.210993 -0.03145,-0.210992 -0.06693,-0.250651 -0.06693,-0.250651 -0.08762,-0.212731 -0.08762,-0.212727 -0.05461,-0.105408 -0.05461,-0.105406 -0.108104,-0.173426 -0.108104,-0.173426 -0.140722,-0.18327 -0.140722,-0.183269 -0.21739,-0.21251 -0.217389,-0.21251 -0.217203,-0.15801 -0.217202,-0.15801 -0.213007,-0.119157 -0.213007,-0.119158 -0.221398,-0.09282 -0.221398,-0.09282 -0.236949,-0.06616 -0.236948,-0.06616 -0.187584,-0.03165 -0.187584,-0.03165 -0.274837,-0.01946 -0.274837,-0.01946 -0.268169,0.02076 -0.268169,0.02076 -0.246821,0.04847 -0.246821,0.04847 -0.236948,0.07691 -0.236949,0.07691 -0.236948,0.111671 -0.236948,0.111671 -0.163943,0.09941 -0.163942,0.09941 -0.151391,0.111181 -0.15139,0.111182 -0.186491,0.173528 -0.18649,0.173527 -0.148579,0.173528 -0.148578,0.173527 -0.135145,0.202417 -0.135145,0.202417 -0.136518,0.269964 -0.136518,0.269964 -0.09969,0.101591 -0.09969,0.101591 -0.1197348,0.07557 -0.119736,0.07557 -0.122235,0.03885 -0.122234,0.03885 -0.1549357,0.02025 -0.1549358,0.02025 -0.151122,0.03808 -0.151122,0.03808 -0.104628,0.03925 -0.104627,0.03926 -0.171812,0.0847 -0.171812,0.0847 -0.147645,0.101772 -0.147646,0.101771 -0.170975,0.160941 -0.170974,0.16094 -0.122735,0.168074 -0.122734,0.168073 -0.07963,0.154247 -0.07963,0.154247 -0.0744,0.106044 -0.0744,0.106045 -0.07597,0.07041 -0.07597,0.07041 -0.127527,0.07969 -0.127527,0.07968 -0.13904,0.03894 -0.13904,0.03894 -0.217202,0.06571 -0.217203,0.06571 -0.187584,0.08898 -0.187584,0.08898 -0.197457,0.127304 -0.197457,0.127305 -0.238221,0.23273 -0.238222,0.232729 -0.12395,0.182258 -0.12395,0.182258 -0.08475,0.164797 -0.08475,0.164797 -0.05963,0.16498 -0.05963,0.16498 -0.04265,0.191716 -0.04265,0.191715 -0.01502,0.21691 -0.01502,0.216909 0.01499,0.21691 0.01499,0.216909 0.03224,0.154247 0.03224,0.154247 0.06657,0.195726 0.06657,0.195725 0.07813,0.15133 0.07813,0.151329 0.12121,0.179898 0.12121,0.179899 0.181968,0.183739 0.181969,0.183739 0.12125,0.09426 0.121251,0.09426 0.168813,0.103489 0.168813,0.10349 0.20798,0.08894 0.207979,0.08894 0.222674,0.05724 0.222674,0.05724 0.157966,0.02024 0.157965,0.02024 0.06911,0.0068 0.06911,0.0068 5.9730693,-0.0024 5.973068,-0.0024 z"
       id="path13034" />
    <rect
       style="fill:#ffffff;stroke:#ffffff;stroke-width:0.264583"
       id="rect14674"
       width="16.801041"
       height="4.4317708"
       x="4.6065369"
       y="16.382275" />
    <rect
       style="fill:#ffffff;stroke:#ffffff;stroke-width:0.264583"
       id="rect14676"
       width="0.9921875"
       height="3.0427084"
       x="4.1104431"
       y="16.977587" />
    <rect
       style="fill:#ffffff;stroke:#ffffff;stroke-width:0.264583"
       id="rect14678"
       width="1.4882812"
       height="2.9104166"
       x="20.349247"
       y="17.142952" />
    <rect
       style="fill:#ffffff;stroke:#ffffff;stroke-width:0.264583"
       id="rect14682"
       width="15.345833"
       height="1.0252604"
       x="5.4333601"
       y="20.549461" />
    <rect
       style="fill:#ffffff;stroke:#ffffff;stroke-width:0.264583"
       id="rect14684"
       width="3.5546846"
       height="1.2628485"
       x="5.0223336"
       y="15.807567" />
    <rect
       style="fill:#ffffff;stroke:#ffffff;stroke-width:0.264583"
       id="rect14686"
       width="1.4499372"
       height="0.72496819"
       x="7.1270814"
       y="15.082599" />
    <rect
       style="fill:#ffffff;stroke:#ffffff;stroke-width:0.264583"
       id="rect14688"
       width="2.0112033"
       height="0.98221546"
       x="7.4077134"
       y="14.310857" />
    <rect
       style="fill:#ffffff;stroke:#ffffff;stroke-width:0.264583"
       id="rect14690"
       width="3.2974377"
       height="1.099146"
       x="7.8052778"
       y="13.726205" />
    <rect
       style="fill:#ffffff;stroke:#ffffff;stroke-width:0.264583"
       id="rect14692"
       width="1.4733232"
       height="1.3096207"
       x="10.237431"
       y="12.463357" />
    <rect
       style="fill:#ffffff;stroke:#ffffff;stroke-width:0.264583"
       id="rect14694"
       width="2.9466465"
       height="1.5668676"
       x="10.77531"
       y="11.551299" />
    <rect
       style="fill:#ffffff;stroke:#ffffff;stroke-width:0.264583"
       id="rect14696"
       width="2.1047475"
       height="1.0056016"
       x="11.827683"
       y="11.060191" />
    <rect
       style="fill:#ffffff;stroke:#ffffff;stroke-width:0.264583"
       id="rect14698"
       width="3.0635769"
       height="1.9644309"
       x="12.786513"
       y="10.358609" />
    <rect
       style="fill:#ffffff;stroke:#ffffff;stroke-width:0.264583"
       id="rect14700"
       width="1.3701543"
       height="2.2023122"
       x="15.508924"
       y="10.962627" />
    <rect
       style="fill:#ffffff;stroke:#ffffff;stroke-width:0.264583"
       id="rect14702"
       width="1.4265511"
       height="3.9522481"
       x="16.177496"
       y="11.574686" />
    <rect
       style="fill:#ffffff;stroke:#ffffff;stroke-width:0.264583"
       id="rect14704"
       width="1.6694046"
       height="3.0651455"
       x="16.598446"
       y="12.697219" />
    <rect
       style="fill:#ffffff;stroke:#ffffff;stroke-width:0.264583"
       id="rect14710"
       width="4.1717501"
       height="1.6160183"
       x="16.177496"
       y="15.526935" />
    <rect
       style="fill:#ffffff;stroke:#ffffff;stroke-width:0.264583"
       id="rect14871"
       width="4.9551864"
       height="3.0238788"
       x="11.128765"
       y="12.011948" />
    <rect
       style="fill:#ffffff;stroke:#ffffff;stroke-width:0.264583"
       id="rect15293"
       width="8.6729717"
       height="5.0981936"
       x="8.4399662"
       y="14.100355" />
  </g>
</svg>
